<?xml version="1.0" encoding="UTF-8"?>
<svg width="176" height="88" version="1.1" viewBox="0 0 46.567 23.283" xmlns="http://www.w3.org/2000/svg">
 <path d="m45.851 11.73c-0.31146 8.3312-3.4077 11.798-3.4077 11.798l-38.169 0.04006s-3.5188-4.052-3.4695-11.57c0.056457-8.6068 3.3971-12.243 3.3971-12.243l37.745 0.008016s4.2098 3.8038 3.9046 11.967z" fill="#f60" stroke-width="1.002"/>
 <g transform="matrix(2.3838 0 0 2.3838 -112.52 -13.65)" fill="#fff" stroke-width="1.1754" style="shape-inside:url(#rect1037);white-space:pre" aria-label="SP">
  <path d="m58.067 8.7392q0 0.40928-0.3266 0.69867-0.32246 0.28939-0.77721 0.28939t-0.77721-0.28939q-0.32246-0.28939-0.32246-0.69867 0-0.095085 0.03307-0.24805-0.18604-0.016536-0.23564-0.016536-0.62838 0-0.62838 0.52503 0 0.26872 0.36794 1.203 0.37207 0.93431 0.37207 1.4635 0 1.1327-1.2526 1.6991-0.93431 0.41755-2.1869 0.41755-1.1452 0-2.0299-0.31833-1.2444-0.44648-1.2444-1.3725 0-1.3477 2.2944-1.3477h1.5751l0.30179 0.66146h-1.2278q-0.46302 0-0.80615 0.16123-0.44648 0.21084-0.44648 0.62425 0 0.46716 0.61598 0.73174 0.47542 0.20257 1.017 0.20257 0.68626 0 1.1452-0.30179 0.5333-0.34727 0.5333-0.99632 0-0.44648-0.339-1.2816-0.339-0.83509-0.339-1.2981 0-1.509 2.5673-1.509h1.0211q0.42168 0 0.75241 0.28525 0.34313 0.30179 0.34313 0.7152z"/>
  <path d="m64.388 9.1195q0 1.2237-1.6909 2.1001-1.1286 0.59118-2.6872 0.8971l-0.50436 1.4387h-1.509l1.509-4.2416h1.4966l-0.71107 1.9885q0.80202-0.1819 1.4221-0.56637 0.86403-0.54157 0.8971-1.2609 0.02067-0.46302-0.31006-0.60772-0.19844-0.086816-0.7152-0.086816h-4.2251l0.64492-1.0418h4.2581q0.93431 0 1.4263 0.23151 0.69867 0.3266 0.69867 1.1493z"/>
 </g>
</svg>
