<?xml version="1.0" encoding="UTF-8"?>
<svg version="1.1" viewBox="0 0 40 40" xmlns="http://www.w3.org/2000/svg">
 <g id="Logos" transform="matrix(1.3252,0,0,1.3252,-7.7229,-8.1141)">
  <path id="Nike" d="m9.24 26.42a3.76 3.76 0 0 1-2.24-0.73c-0.1-0.09-0.36-0.35-0.45-0.46a3.05 3.05 0 0 1-0.5-0.89 5.18 5.18 0 0 1 0.48-3.64 16.21 16.21 0 0 1 2.84-4c0.21-0.24 0.85-0.95 0.86-0.95l-0.08 0.14a8.56 8.56 0 0 0-0.88 2 3.69 3.69 0 0 0 0.1 2.63 2.56 2.56 0 0 0 1.12 1.11 5.35 5.35 0 0 0 3.47 0.1l11.06-2.93 10.87-2.9-21.07 9.1c-1.14 0.49-1.44 0.61-2 0.8a10.07 10.07 0 0 1-3.58 0.62z"/>
 </g>
</svg>
