<?xml version="1.0" encoding="UTF-8"?>
<svg width="64" height="64" version="1.1" viewBox="35.433 30.331 22.766 21.343" xmlns="http://www.w3.org/2000/svg">
 <path d="m47.735 34.982c-0.0729 0.01125-0.14298 0.27968-0.28388 0.41952-0.10304 0.10093-0.23166 0.09462-0.29998 0.21938-0.02594 0.04662-0.01754 0.12618-0.04697 0.20258-0.05748 0.1528-0.26004 0.16646-0.26004 0.33294-7e-4 0.17979 0.16892 0.21413 0.31576 0.34169 0.11461 0.10269 0.12583 0.17348 0.26459 0.22323 0.11848 0.04033 0.29475-0.09147 0.45351-0.04415 0.13038 0.03891 0.25513 0.06694 0.28459 0.20082 0.02591 0.12336-0.0018 0.3147-0.15982 0.29264-0.05328-6e-3 -0.28424-0.08377-0.56809-0.05363-0.34242 0.03891-0.73319 0.15068-0.77138 0.53237-0.02103 0.21342 0.24285 0.46506 0.49766 0.41389 0.17627-0.03471 0.09288-0.2425 0.18889-0.34345 0.1258-0.1293 0.83865 0.4514 1.5014 0.4514 0.27898 0 0.48644-0.07043 0.69254-0.28632 0.01925-0.01648 0.04274-0.05187 0.07253-0.05399 0.02805 0.0022 0.0771 0.02979 0.09322 0.04171 0.53376 0.42896 0.93713 1.2894 2.8987 1.2995 0.27581 0.0014 0.59016 0.13318 0.84669 0.36728 0.22887 0.21169 0.36275 0.54075 0.49275 0.87474 0.19627 0.50118 0.54815 0.98867 1.0815 1.5312 0.02911 0.02908 0.46822 0.37044 0.50327 0.39603 0.0056 0.0035 0.03786 0.0806 0.02667 0.12369-0.01298 0.32524-0.0603 1.2711 0.64482 1.3139 0.17244 0.0087 0.12721-0.1125 0.12721-0.19591-2.19e-4 -0.16472-0.03049-0.32838 0.05645-0.49695 0.11879-0.23199-0.25199-0.3389-0.24112-0.84041 0.0077-0.37394-0.30632-0.31017-0.46578-0.59509-0.09182-0.16507-0.17348-0.25266-0.16751-0.45457 0.03575-1.1362-0.24182-1.8827-0.38026-2.0659-0.10792-0.13843-0.1973-0.19345-0.09848-0.2576 0.58845-0.38866 0.72197-0.75035 0.72197-0.75035 0.31294-0.73561 0.59438-1.4075 0.98234-1.7032 0.07816-0.061 0.27863-0.21063 0.40164-0.26952 0.36202-0.17068 0.55267-0.27405 0.65782-0.37641 0.16646-0.16226 0.29787-0.50045 0.13841-0.70547-0.19835-0.25304-0.54146-0.05222-0.69284 0.03748-1.0819 0.64208-1.2413 1.7747-1.616 2.4252-0.29893 0.51972-0.78501 0.90138-1.2196 0.93258-0.32595 0.02417-0.6771-0.04171-1.0269-0.19521-0.85057-0.37289-1.316-0.85442-1.4257-0.93957-0.22852-0.17629-2.0026-1.9178-3.4398-1.9889 0 0-0.17835-0.35711-0.22323-0.36307-0.10515-0.01333-0.21272 0.21342-0.28982 0.23974-0.07254 0.02415-0.1945-0.2457-0.26776-0.23377m-6.3272 10.394c-0.13529-0.0031-0.25022-0.11426-0.25022-0.25163l3.49e-4 -4.4831h-1.4776v4.9419c0 0.24218 0.19624 0.43985 0.43701 0.43985h2.5826c0.2425 0 0.43633-0.19768 0.43633-0.43985v-4.9419h-1.4762l-0.0014 4.4831c0 0.13738-0.11496 0.24846-0.25093 0.25163m4.9471-4.7348h-2.2363c-0.26459 0-0.48012 0.21518-0.48012 0.48259v4.8991h1.4789v-4.4939c0.0011-0.13773 0.1125-0.24673 0.2499-0.24673 0.13808 0 0.24882 0.10654 0.25196 0.24288v4.4978h1.473v-4.4979c0.0018-0.13632 0.1125-0.24285 0.25022-0.24285 0.1367 0 0.24955 0.109 0.2506 0.24673v4.494h1.4789v-4.8991c0-0.26741-0.21589-0.48259-0.48048-0.48259zm-8.6519 0.89718c0.0011-0.14965-0.1209-0.25619-0.25022-0.25619h-0.25093v2.722h0.25093c0.13038 0 0.25131-0.10374 0.25022-0.25266zm0.99147 3.1321h-1.4926v1.3525h-1.4769v-5.3817h2.979c0.26668 0 0.47484 0.21659 0.47484 0.4847v3.0599c0 0.26846-0.21621 0.48468-0.48432 0.48468m15.446 0.14895c-0.29684 0-0.54603 0.25654-0.54603 0.56742 0 0.31191 0.24919 0.56633 0.55549 0.56633 0.30386 0 0.54988-0.25443 0.54988-0.56633 0-0.31158-0.24602-0.56742-0.54991-0.56742zm0.66517 0.56565c0 0.36551-0.29299 0.66273-0.65571 0.66273-0.3666 0-0.66097-0.29508-0.66097-0.66273 0-0.36063 0.29437-0.66203 0.6501-0.66203 0.37359 0 0.66658 0.29231 0.66658 0.66203" stroke-width=".025156"/>
 <path d="m54.081 45.343c0.10269 0 0.15667-0.03645 0.15667-0.10933 0-0.06485-0.05222-0.09813-0.15212-0.09813h-0.02943v0.20746zm0.37817 0.42546h-0.17629l-0.22676-0.30174v0.30174h-0.14404v-0.76295h0.15142c0.20572 0 0.31505 0.0778 0.31505 0.2264 0 0.09916-0.06448 0.18716-0.15456 0.21342l-0.01051 0.0038zm-2.9078-1.7632v-2.4781c-0.0035-0.13705-0.11391-0.24217-0.25163-0.24217-0.13634 0-0.24919 0.10933-0.25022 0.24602v2.4743zm0 2.0176v-1.351h-0.50186v1.351h-1.4761v-4.8991c0-0.26741 0.21551-0.48259 0.48012-0.48259h2.4939c0.26532 0 0.48085 0.21518 0.48085 0.48259v4.8991z" stroke-width=".025156"/>
</svg>
