<?xml version="1.0" encoding="UTF-8"?>
<svg width="64" height="64" version="1.1" viewBox="0 0 64 64" xml:space="preserve" xmlns="http://www.w3.org/2000/svg">
<g transform="matrix(.11889 0 0 .11889 1.8014 -.87298)">
	
		
			<path d="m77.978 227.45h68.267c4.71 0 8.533-3.823 8.533-8.533v-51.302c-39.552 29.295-60.74 30.268-70.357 27.785-9.105-2.364-12.74-8.866-13.585-10.667-0.367-2.21-0.845-4.548-1.391-6.912v41.097c-1e-3 4.71 3.822 8.532 8.533 8.532z"/>
			<path d="m371.45 277.78c9.481-2.167 17.562-7.902 22.733-16.137l7.467-13.696c-15.121-6.579-17.545-7.057-18.441-7.211-2.825-1.015-13.005-6.775-26.914-15.002l0.512-0.512c3.337-3.337 3.337-8.738 0-12.066-3.328-3.337-8.73-3.337-12.066 0l-3.558 3.55c-7.006-4.215-14.473-8.747-22.153-13.44l1.647-1.647c3.328-3.328 3.328-8.73 0-12.066-3.337-3.328-8.738-3.328-12.066 0l-4.531 4.531c-5.615-3.464-11.23-6.929-16.725-10.342l1.451-1.451c3.336-3.337 3.336-8.738 0-12.066-3.328-3.336-8.73-3.336-12.066 0l-4.241 4.241c-22.409-14.046-40.704-25.805-45.73-29.568-19.866-14.942-50.79 6.238-54.793 9.122-0.043 0.043-0.085 0.068-0.137 0.111v10.914l172.13 108.08c8.242 5.172 17.996 6.81 27.485 4.66z"/>
			<path d="m478.93 280.54-3.934-1.493c-14.379-5.453-29.244-11.102-43.324-17.57-5.385-2.483-10.155-4.659-14.396-6.571l-8.371 15.36c-7.859 12.552-19.721 20.966-33.655 24.149-3.994 0.913-8.021 1.365-12.023 1.365-9.941 0-19.703-2.79-28.331-8.209l-40.568-25.463-59.221 59.213h-24.132l68.531-68.523-11.383-7.151-75.682 75.674h-24.132l84.984-84.983-11.383-7.142-92.134 92.126h-24.132l101.44-101.44-55.245-34.688v33.724c0 14.123-11.477 25.6-25.6 25.6h-68.267c-14.114 0-25.6-11.477-25.6-25.6v-65.562c-0.171-0.043-0.307-0.145-0.478-0.188-12.237-2.893-21.743 9.813-23.151 11.827-45.389 75.324-23.868 138.37-13.329 160.75-3.473 3.123-5.709 7.612-5.709 12.638v17.058c0 9.412 7.663 17.067 17.067 17.067l432.96-9e-3c0.188 9e-3 1.152 0.068 2.714 0.068 7.023 0 25.907-1.178 38.622-13.013 7.97-7.424 12.049-17.399 12.109-29.653v-0.052c-1e-3 -22.715-12.801-41.147-34.245-49.313zm10.547 66.483c-10.086 9.446-28.459 8.465-29.193 8.431l-433.51-9e-3v-17.058h468.1c-1.076 3.414-2.868 6.272-5.402 8.636z"/>
		
	
</g>















</svg>
