<?xml version="1.0" encoding="UTF-8"?>
<svg width="64" height="64" version="1.1" viewBox="0 0 4.9346 4.9346" xmlns="http://www.w3.org/2000/svg">
 <g transform="matrix(.071626 0 0 .071626 -4.4549 -5.7558)" clip-rule="evenodd" fill-rule="evenodd">
  <path d="m97.04 137.16c11.474 0 22.073-3.748 28.353-10.029 3.59-3.59 5.488-7.766 5.488-12.079 0-4.312-1.898-8.49-5.488-12.08-6.28-6.28-16.879-10.029-28.353-10.029-18.66 0-33.841 9.918-33.841 22.109 0 4.313 1.898 8.489 5.488 12.079 6.28 6.281 16.88 10.029 28.353 10.029z"/>
  <path d="m64.784 115.17c0-3.948 1.762-7.796 5.094-11.128 6.034-6.033 16.277-9.636 27.402-9.636s21.369 3.603 27.402 9.636c3.332 3.332 5.094 7.181 5.094 11.128 0 11.45-14.577 20.765-32.496 20.765-11.125 0-21.368-3.604-27.402-9.637-3.332-3.332-5.094-7.18-5.094-11.128z" fill="#fff"/>
  <path d="m118.44 100.83 0.102-0.538 0.054-0.287h-1.685c-5.363-2.709-12.191-4.332-19.626-4.332-7.45 0-14.29 1.63-19.658 4.348h-1.975l0.053 0.286 0.128 0.694c-6.021 3.555-9.78 8.589-9.78 14.171 0 10.769 13.983 19.499 31.231 19.499 17.249 0 31.231-8.73 31.231-19.499 1e-3 -5.672-3.881-10.779-10.075-14.342z"/>
  <g fill="#fff">
   <path d="m90.228 127.95 0.415-2.822h3.62l0.432 2.822h3.619l-3.974-21.31h-3.697l-3.973 21.31z"/>
   <path d="m105.47 118.28-0.139-4.86v-6.783h3.485v21.313h-3.408l-3.961-11.605 0.139 4.857v6.748h-3.485v-21.312h3.408zm10.061-5.426c-0.062-0.741-0.262-1.186-0.525-1.465a1.28 1.28 0 0 0-0.943-0.383c-0.803 0-1.159 0.442-1.159 1.208 0 3.184 6.39 1.209 6.39 8.933 0 4.945-2.144 7.344-5.201 7.344-2.932 0-4.844-3.287-4.921-7.139h3.486c0.077 0.771 0.292 1.334 0.606 1.695 0.293 0.355 0.678 0.533 1.033 0.533 0.91 0 1.511-0.562 1.511-1.576 0-3.211-6.39-1.004-6.39-9.092 0-4.536 2.036-6.819 4.814-6.819 3.087 0 4.49 3.024 4.752 6.76h-3.453z"/>
   <path d="m118.3 100.25-32.09 0.017-2.718 18.41-2.614-18.41h-4.939l5.105 27.685h4.917l4.246-22.657h27.14zm1.416 27.423c0.674 0 1.246-0.525 1.246-1.246 0-0.711-0.572-1.238-1.246-1.238-0.681 0-1.253 0.527-1.253 1.238a1.235 1.235 0 0 0 1.253 1.246zm-31.473 3.053c0.511 0.119 0.75 0.385 0.75 0.631 0 0.996-1.767 1.156-2.495 1.156-0.197 0-0.814 0-0.814-0.291 0-0.105 0.177-0.371 0.258-0.445 0.061-0.051 0.359-0.145 0.436-0.145 0.025 0 0.04 4e-3 0.04 0.033 0 0.051-0.05 0.076-0.086 0.096a0.529 0.529 0 0 0-0.085 0.076v0.01c1.806 0.064 2.301-0.451 2.301-0.531 0-0.256-1.402-0.455-1.645-0.496-0.252-0.039-0.515-0.119-0.515-0.42 0-0.164 0.076-0.529 0.161-0.664 0.152-0.256 1.073-0.732 2.181-0.732 0.213 0 0.425 0.025 0.638 0.07 0.116 0.025 0.132 0.064 0.132 0.166 0 0.371-0.127 0.455-0.426 0.57-0.217 0.08-0.258 0.105-0.456 0.246-0.036 0.02-0.086 0.049-0.126 0.049-0.051 0-0.081-0.025-0.081-0.074 0-0.01 0.096-0.166 0.37-0.352l-0.01-0.01c-1.306 0.045-1.873 0.512-1.873 0.625-7e-3 0.07-0.068 0.106 1.345 0.432zm2.156-0.116c0.218 0 0.406-0.244 0.406-0.443 0-0.09-0.076-0.156-0.167-0.156-0.198 0-0.441 0.182-0.441 0.385 0 0.121 0.081 0.214 0.202 0.214zm6.245 0.891c-0.269 0.211-0.694 0.576-1.055 0.576-0.163 0-0.326-0.064-0.315-0.256l0.01-0.109c0.976-0.316 1.224-0.688 1.224-0.932 0-0.201-0.203-0.24-0.365-0.24-0.535-4e-3 -1.111 0.436-1.302 0.953-0.294 0.225-0.729 0.568-1.11 0.568-0.264 0-0.385-0.156-0.385-0.271 0-0.139 0.091-0.215 0.202-0.295l0.425-0.314c5e-3 0.094 0.056 0.221 0.172 0.221 0.137 0 0.537-0.387 0.537-0.662 0-0.15-0.071-0.23-0.228-0.23-0.283 0-0.77 0.271-0.997 0.441-0.229 0.172-0.371 0.301-0.436 0.506l-0.291 0.24c-0.091 0.074-0.314 0.25-0.436 0.25a0.093 0.093 0 0 1-0.091-0.09c0-0.346 0.623-0.727 0.623-0.922a1.136 1.136 0 0 0-0.076-0.271c-0.03-0.068-0.061-0.094-0.081-0.094-0.147 0-1.079 0.615-1.484 1.127-0.02 0.023-0.065 0.068-0.101 0.068a0.055 0.055 0 0 1-0.056-0.055c0-0.119 0.638-0.625 0.638-0.82 0-0.031 0.025-0.102-0.279-0.111-0.086 0-0.131 6e-3 -0.197 0.061-0.215 0.18-0.443 0.5-0.544 0.795l-8e-3 -0.035c-0.203 0.145-0.466 0.41-0.735 0.41-0.233 0-0.31-0.111-0.269-0.316 0.213-0.145 0.714-0.59 0.714-0.84 0-0.111-0.137-0.141-0.223-0.141-0.304 0-0.938 0.596-0.938 1.207 0 0.254 0.137 0.594 0.436 0.594 0.341 0 0.729-0.352 0.972-0.623 0 0.016-4e-3 0.031-3e-3 0.047 5e-3 0.17 0.061 0.486 0.283 0.486 0.137 0 0.324-0.246 0.4-0.342 0.228-0.291 0.486-0.551 0.78-0.766l0.01 0.01c-0.162 0.23-0.436 0.561-0.436 0.861 0 0.17 0.091 0.33 0.284 0.33 0.33 0 0.779-0.488 1.063-0.762l-1e-3 0.016c0 0.371 0.187 0.73 0.575 0.73 0.417 0 0.899-0.371 1.221-0.684 0 0.016-5e-3 0.029-4e-3 0.045 0.01 0.33 0.182 0.656 0.55 0.656 0.504 0 1.062-0.471 1.371-0.826zm3.248-1.531a0.751 0.751 0 0 1-0.137 0.049c-0.056 0-0.046-0.084-0.041-0.115 0.01-0.145 0.111-0.189 0.233-0.26 0.167-0.096 0.739-0.43 0.881-0.43 0.132 0 0.233 0.27 0.233 0.344 0 0.146 0 0.131-0.795 1.467-0.177 0.297-0.592 1.002-0.592 1.338 0 0.061 0.015 0.115 0.015 0.176 0 0.045-0.025 0.068-0.071 0.068a0.302 0.302 0 0 1-0.106-0.045c-0.192-0.104-0.41-0.139-0.41-0.4 0-0.25 0.218-0.805 0.354-1.031 0.37-0.605 0.78-1.141 0.927-1.332l-0.01-0.01zm3.922 0.113c-0.056 0.035-0.096 0.064-0.162 0.064-0.031 0-0.056-0.029-0.056-0.059 0-0.012-0.025-0.021 0.263-0.262l-0.01-0.01c-1.215 0.307-1.625 0.771-1.625 1.092 0 0.055 0.021 0.08 0.081 0.08 0.39 0 1.053-0.385 1.347-0.631 0.076-0.061 0.253-0.211 0.359-0.211 0.061 0 0.273 0.047 0.273 0.125 0 0.082-0.122 0.211-0.167 0.271l-1.332 1.549c-0.294 0.35-0.471 0.451-0.678 0.471-0.061 4e-3 -0.111-0.025-0.111-0.09 0-0.066 0.101-0.207 0.131-0.256 0.086-0.135 0.111-0.23 0.288-0.221l0.957-1.127-0.01-0.012c-0.208 0.146-0.775 0.498-1.023 0.498-0.172 0-0.626-0.342-0.626-0.762 0-0.617 1.204-1.412 2.08-1.398 0.197 6e-3 0.496 0.391 0.496 0.506s-0.202 0.215-0.289 0.266zm2.367-0.187c0.217-0.16 0.55-0.41 0.793-0.521 0.036-0.016 0.106-0.055 0.106-0.105 0-0.09-0.359-0.064-0.404-0.064-0.278 0-0.328 0.025-0.577 0.176-0.696 0.42-1.665 1.227-1.665 2.104 0 0.629 0.603 1.02 0.882 1.02 0.346 0 1.43-0.734 1.43-1.545 0-0.355-0.232-0.668-0.606-0.668-0.234 0-0.442 0.121-0.646 0.211l-0.01-0.01zm2.86 0c0.218-0.16 0.551-0.41 0.794-0.521 0.035-0.016 0.106-0.055 0.106-0.105 0-0.09-0.36-0.064-0.405-0.064-0.277 0-0.328 0.025-0.576 0.176-0.696 0.42-1.665 1.227-1.665 2.104 0 0.629 0.603 1.02 0.882 1.02 0.346 0 1.43-0.734 1.43-1.545 0-0.355-0.232-0.668-0.606-0.668-0.234 0-0.442 0.121-0.646 0.211l-0.01-0.01z"/>
  </g>
  <path d="m93.632 120.68h-2.295l1.124-7.617zm25.077 5.74c0-0.586 0.439-1.031 1.006-1.031 0.561 0 0.998 0.445 0.998 1.031 0 0.6-0.438 1.039-0.998 1.039-0.567 0-1.006-0.439-1.006-1.039zm-22.71 4.402c0.036-0.01 0.062 0.021 0.062 0.057 5e-3 0.084-0.3 0.43-0.748 0.58 0.137-0.33 0.432-0.57 0.686-0.637zm10.089-0.172c0.137 0 0.147 0.086 0.147 0.189-0.015 0.605-0.737 1.092-1.103 1.15-0.127 0.021-0.127-0.234-0.127-0.314 0-0.289 0.076-0.35 0.295-0.541 0.163-0.138 0.569-0.484 0.788-0.484zm2.861 0c0.137 0 0.147 0.086 0.147 0.189-0.015 0.605-0.737 1.092-1.103 1.15-0.127 0.021-0.127-0.234-0.127-0.314 0-0.289 0.076-0.35 0.295-0.541 0.163-0.138 0.569-0.484 0.788-0.484z"/>
  <path d="m119.35 126.52h0.455c0.226 0 0.249 0.137 0.249 0.252 0 0.053 6e-3 0.266 0.033 0.352h0.229v-0.031c-0.058-0.033-0.068-0.062-0.07-0.141l-0.011-0.254c-8e-3 -0.197-0.086-0.232-0.166-0.266a0.352 0.352 0 0 0 0.192-0.338c0-0.299-0.229-0.381-0.457-0.381h-0.642v1.41h0.187v-0.603z" fill="#fff"/>
  <path d="m119.35 125.88h0.468c0.093 0 0.25 0.018 0.25 0.236 0 0.209-0.145 0.244-0.282 0.244h-0.435v-0.48z"/>
 </g>
</svg>
